# Made in Blockbench 4.6.4
mtllib satellite_rocket.mtl

o Rocket
v 0.06322674418604651 5.528846153846153 -0.06702456442627981
v -0.06322674418604651 5.528846153846153 -0.06702456442627981
v -0.06322674418604651 6.25 -0.06702241965853446
v 0.06322674418604651 6.25 -0.06702241965853446
v 0.06322674418604651 5.528846153846153 0.06702341965853456
v 0.06322674418604651 6.25 0.06702556442627992
v -0.06322674418604651 5.528846153846153 0.06702341965853456
v -0.06322674418604651 6.25 0.06702556442627992
v 0.758720930232558 0.6009615384615388 -0.804288476892759
v -0.758720930232558 0.6009615384615388 -0.804288476892759
v -0.758720930232558 4.206730769230769 -0.804288476892759
v 0.758720930232558 4.206730769230769 -0.804288476892759
v 0.758720930232558 0.6009615384615388 0.8042873321250136
v 0.758720930232558 4.206730769230769 0.8042873321250136
v -0.758720930232558 0.6009615384615388 0.8042873321250136
v -0.758720930232558 4.206730769230769 0.8042873321250136
v -0.2804616976744186 2.2656096153846157 -0.01675549801060175
v -1.215082465116279 2.633575 -0.01675549801060175
v -0.7311662093023256 3.744005769230769 -0.01675549801060175
v 0.20345455813953486 3.3760403846153846 -0.01675549801060175
v -0.2804616976744186 2.2656096153846157 0.016756498010601844
v 0.20345455813953486 3.3760403846153846 0.016756498010601844
v -1.215082465116279 2.633575 0.016756498010601844
v -0.7311662093023256 3.744005769230769 0.016756498010601844
v 1.215082465116279 2.633575 -0.01675549801060175
v 0.2804616976744186 2.2656096153846157 -0.01675549801060175
v -0.20345455813953486 3.3760403846153846 -0.01675549801060175
v 0.7311662093023256 3.744005769230769 -0.01675549801060175
v 1.215082465116279 2.633575 0.016756498010601844
v 0.7311662093023256 3.744005769230769 0.016756498010601844
v 0.2804616976744186 2.2656096153846157 0.016756498010601844
v -0.20345455813953486 3.3760403846153846 0.016756498010601844
v -0.01580567441860465 2.633575 -1.288058
v -0.01580567441860465 2.2656096153846157 -0.2973039877097734
v -0.01580567441860465 3.3760403846153846 0.21567512732148494
v -0.01580567441860465 3.744005769230769 -0.7750788849687416
v 0.01580567441860465 2.633575 -1.288058
v 0.01580567441860465 3.744005769230769 -0.7750788849687416
v 0.01580567441860465 2.2656096153846157 -0.2973039877097734
v 0.01580567441860465 3.3760403846153846 0.21567512732148494
v -0.01580567441860465 2.2656096153846157 0.29730498770977354
v -0.01580567441860465 2.633573076923077 1.288059
v -0.01580567441860465 3.744005769230769 0.7750798849687416
v -0.01580567441860465 3.3760403846153846 -0.21567412732148483
v 0.01580567441860465 2.2656096153846157 0.29730498770977354
v 0.01580567441860465 3.3760403846153846 -0.21567412732148483
v 0.01580567441860465 2.633573076923077 1.288059
v 0.01580567441860465 3.744005769230769 0.7750798849687416
v 1.0116279069767442 0 -1.0723844450623874
v -1.0116279069767442 0 -1.0723844450623874
v -1.0116279069767442 0.36057692307692335 -1.0723844450623874
v 1.0116279069767442 0.36057692307692335 -1.0723844450623874
v 1.0116279069767442 0 1.0723833002946423
v 1.0116279069767442 0.36057692307692335 1.0723833002946423
v -1.0116279069767442 0 1.0723833002946423
v -1.0116279069767442 0.36057692307692335 1.0723833002946423
v 1.0116279069767442 1.4423076923076923 -0.03351256840507622
v 0.758720930232558 1.4423076923076923 -0.03351256840507622
v 0.758720930232558 1.8028846153846152 -0.03351256840507622
v 1.0116279069767442 1.8028846153846152 -0.03351256840507622
v 1.0116279069767442 1.4423076923076923 0.06702341965853456
v 1.0116279069767442 1.8028846153846152 0.06702341965853456
v 0.758720930232558 1.4423076923076923 0.06702341965853456
v 0.758720930232558 1.8028846153846152 0.06702341965853456
v 1.359375 1.2019230769230769 -0.1675605524898906
v 1.0116279069767442 1.2019230769230769 -0.1675605524898906
v 1.0116279069767442 1.8028846153846152 -0.1675605524898906
v 1.359375 1.8028846153846152 -0.1675605524898906
v 1.359375 1.2019230769230769 0.20107140374334895
v 1.359375 1.8028846153846152 0.20107140374334895
v 1.0116279069767442 1.2019230769230769 0.20107140374334895
v 1.0116279069767442 1.8028846153846152 0.20107140374334895
v -1.0116279069767442 1.2019230769230769 -0.1675605524898906
v -1.359375 1.2019230769230769 -0.1675605524898906
v -1.359375 1.8028846153846152 -0.1675605524898906
v -1.0116279069767442 1.8028846153846152 -0.1675605524898906
v -1.0116279069767442 1.2019230769230769 0.20107140374334895
v -1.0116279069767442 1.8028846153846152 0.20107140374334895
v -1.359375 1.2019230769230769 0.20107140374334895
v -1.359375 1.8028846153846152 0.20107140374334895
v -0.758720930232558 1.4423076923076923 -0.03351256840507622
v -1.0116279069767442 1.4423076923076923 -0.03351256840507622
v -1.0116279069767442 1.8028846153846152 -0.03351256840507622
v -0.758720930232558 1.8028846153846152 -0.03351256840507622
v -0.758720930232558 1.4423076923076923 0.06702341965853456
v -0.758720930232558 1.8028846153846152 0.06702341965853456
v -1.0116279069767442 1.4423076923076923 0.06702341965853456
v -1.0116279069767442 1.8028846153846152 0.06702341965853456
v 0.758720930232558 4.206730769230769 -0.804288476892759
v 0.758720930232558 4.206730769230769 0.8042873321250136
v -0.758720930232558 4.206730769230769 0.8042873321250136
v -0.758720930232558 4.206730769230769 -0.804288476892759
v 0 5.649038461538462 0.000001572383872725603
v 1.0116279069767442 0.36057692307692335 -1.0723844450623874
v 1.0116279069767442 0.36057692307692335 1.0723833002946423
v -1.0116279069767442 0.36057692307692335 1.0723833002946423
v -1.0116279069767442 0.36057692307692335 -1.0723844450623874
v 0 2.764423076923077 -5.72383872631427e-7
v 1.359375 1.8028846153846152 -0.1675605524898906
v 1.359375 1.8028846153846152 0.20107140374334895
v 1.0116279069767442 1.8028846153846152 0.20107140374334895
v 1.0116279069767442 1.8028846153846152 -0.1675605524898906
v 1.1855024651162789 2.1634615384615388 0.016756498010601844
v 1.359375 1.0817307692307692 -0.1675605524898906
v 1.359375 1.0817307692307692 0.20107140374334895
v 1.0116279069767442 1.0817307692307692 0.20107140374334895
v 1.0116279069767442 1.0817307692307692 -0.1675605524898906
v 1.1855024651162789 1.4423076923076923 0.016756498010601844
v -1.0116279069767442 1.0817307692307692 0.20107140374334895
v -1.359375 1.0817307692307692 0.20107140374334895
v -1.359375 1.0817307692307692 -0.1675605524898906
v -1.0116279069767442 1.0817307692307692 -0.1675605524898906
v -1.1855024651162789 1.4423076923076923 0.016756498010601844
v -1.0116279069767442 1.8028846153846152 0.20107140374334895
v -1.359375 1.8028846153846152 0.20107140374334895
v -1.359375 1.8028846153846152 -0.1675605524898906
v -1.0116279069767442 1.8028846153846152 -0.1675605524898906
v -1.1855024651162789 2.1634615384615388 0.016756498010601844
vt 0.421875 0.953125
vt 0.4296875 0.953125
vt 0.4296875 1
vt 0.421875 1
vt 0.3359375 0.7578125
vt 0.34375 0.7578125
vt 0.34375 0.8046875
vt 0.3359375 0.8046875
vt 0.421875 0.859375
vt 0.4296875 0.859375
vt 0.4296875 0.90625
vt 0.421875 0.90625
vt 0.21875 0.5390625
vt 0.2265625 0.5390625
vt 0.2265625 0.5859375
vt 0.21875 0.5859375
vt 0.1328125 0.734375
vt 0.140625 0.734375
vt 0.140625 0.7421875
vt 0.1328125 0.7421875
vt 0.2578125 0.7578125
vt 0.265625 0.7578125
vt 0.265625 0.765625
vt 0.2578125 0.765625
vt 0 0.765625
vt 0.09375 0.765625
vt 0.09375 1
vt 0 1
vt 0.09375 0.765625
vt 0.1875 0.765625
vt 0.1875 1
vt 0.09375 1
vt 0.1875 0.765625
vt 0.28125 0.765625
vt 0.28125 1
vt 0.1875 1
vt 0 0.53125
vt 0.09375 0.53125
vt 0.09375 0.765625
vt 0 0.765625
vt 0.453125 0.703125
vt 0.546875 0.703125
vt 0.546875 0.796875
vt 0.453125 0.796875
vt 0.28125 0.4453125
vt 0.375 0.4453125
vt 0.375 0.5390625
vt 0.28125 0.5390625
vt 0.09375 0.4453125
vt 0.15625 0.4453125
vt 0.15625 0.5234375
vt 0.09375 0.5234375
vt 0.3203125 0.921875
vt 0.328125 0.921875
vt 0.328125 1
vt 0.3203125 1
vt 0.484375 1
vt 0.484375 0.9375
vt 0.5625 0.9375
vt 0.5625 1
vt 0.3203125 0.6875
vt 0.328125 0.6875
vt 0.328125 0.765625
vt 0.3203125 0.765625
vt 0.25 0.46875
vt 0.25 0.40625
vt 0.2578125 0.40625
vt 0.2578125 0.46875
vt 0.234375 0.4765625
vt 0.234375 0.4140625
vt 0.2421875 0.4140625
vt 0.2421875 0.4765625
vt 0.15625 0.4765625
vt 0.15625 0.4140625
vt 0.234375 0.4140625
vt 0.234375 0.4765625
vt 0.328125 0.7578125
vt 0.3359375 0.7578125
vt 0.3359375 0.8359375
vt 0.328125 0.8359375
vt 0.5234375 0.625
vt 0.5859375 0.625
vt 0.5859375 0.703125
vt 0.5234375 0.703125
vt 0.3203125 0.765625
vt 0.328125 0.765625
vt 0.328125 0.84375
vt 0.3203125 0.84375
vt 0.265625 0.40625
vt 0.265625 0.46875
vt 0.2578125 0.46875
vt 0.2578125 0.40625
vt 0.25 0.4140625
vt 0.25 0.4765625
vt 0.2421875 0.4765625
vt 0.2421875 0.4140625
vt 0.5234375 0.625
vt 0.5234375 0.5625
vt 0.6015625 0.5625
vt 0.6015625 0.625
vt 0.3125 0.921875
vt 0.3203125 0.921875
vt 0.3203125 1
vt 0.3125 1
vt 0.5234375 0.484375
vt 0.5859375 0.484375
vt 0.5859375 0.5625
vt 0.5234375 0.5625
vt 0.3125 0.765625
vt 0.3203125 0.765625
vt 0.3203125 0.84375
vt 0.3125 0.84375
vt 0.390625 0.46875
vt 0.390625 0.53125
vt 0.3828125 0.53125
vt 0.3828125 0.46875
vt 0.3828125 0.46875
vt 0.3828125 0.53125
vt 0.375 0.53125
vt 0.375 0.46875
vt 0.5234375 0.40625
vt 0.5859375 0.40625
vt 0.5859375 0.484375
vt 0.5234375 0.484375
vt 0.3125 0.6875
vt 0.3203125 0.6875
vt 0.3203125 0.765625
vt 0.3125 0.765625
vt 0.546875 0.8515625
vt 0.546875 0.7890625
vt 0.625 0.7890625
vt 0.625 0.8515625
vt 0.3046875 0.921875
vt 0.3125 0.921875
vt 0.3125 1
vt 0.3046875 1
vt 0.390625 0.53125
vt 0.390625 0.46875
vt 0.3984375 0.46875
vt 0.3984375 0.53125
vt 0.453125 0.859375
vt 0.453125 0.796875
vt 0.4609375 0.796875
vt 0.4609375 0.859375
vt 0.484375 0.9140625
vt 0.609375 0.9140625
vt 0.609375 0.9375
vt 0.484375 0.9375
vt 0.484375 0.890625
vt 0.609375 0.890625
vt 0.609375 0.9140625
vt 0.484375 0.9140625
vt 0.546875 0.765625
vt 0.671875 0.765625
vt 0.671875 0.7890625
vt 0.546875 0.7890625
vt 0.546875 0.7421875
vt 0.671875 0.7421875
vt 0.671875 0.765625
vt 0.546875 0.765625
vt 0.09375 0.5234375
vt 0.21875 0.5234375
vt 0.21875 0.6484375
vt 0.09375 0.6484375
vt 0.3984375 0.578125
vt 0.5234375 0.578125
vt 0.5234375 0.703125
vt 0.3984375 0.703125
vt 0.3125 0.6328125
vt 0.328125 0.6328125
vt 0.328125 0.65625
vt 0.3125 0.65625
vt 0.25 0.7421875
vt 0.2578125 0.7421875
vt 0.2578125 0.765625
vt 0.25 0.765625
vt 0.359375 0.8046875
vt 0.375 0.8046875
vt 0.375 0.828125
vt 0.359375 0.828125
vt 0.28125 0.875
vt 0.2890625 0.875
vt 0.2890625 0.8984375
vt 0.28125 0.8984375
vt 0.1484375 0.7578125
vt 0.1640625 0.7578125
vt 0.1640625 0.765625
vt 0.1484375 0.765625
vt 0.140625 0.75
vt 0.15625 0.75
vt 0.15625 0.7578125
vt 0.140625 0.7578125
vt 0.09375 0.7265625
vt 0.1171875 0.7265625
vt 0.1171875 0.765625
vt 0.09375 0.765625
vt 0.1796875 0.7265625
vt 0.203125 0.7265625
vt 0.203125 0.765625
vt 0.1796875 0.765625
vt 0.203125 0.7265625
vt 0.2265625 0.7265625
vt 0.2265625 0.765625
vt 0.203125 0.765625
vt 0.2265625 0.7265625
vt 0.25 0.7265625
vt 0.25 0.765625
vt 0.2265625 0.765625
vt 0.3515625 0.9765625
vt 0.375 0.9765625
vt 0.375 1
vt 0.3515625 1
vt 0.265625 0.6015625
vt 0.2890625 0.6015625
vt 0.2890625 0.625
vt 0.265625 0.625
vt 0.1796875 0.6875
vt 0.203125 0.6875
vt 0.203125 0.7265625
vt 0.1796875 0.7265625
vt 0.28125 0.9609375
vt 0.3046875 0.9609375
vt 0.3046875 1
vt 0.28125 1
vt 0.28125 0.921875
vt 0.3046875 0.921875
vt 0.3046875 0.9609375
vt 0.28125 0.9609375
vt 0.28125 0.8125
vt 0.3046875 0.8125
vt 0.3046875 0.8515625
vt 0.28125 0.8515625
vt 0.21875 0.5859375
vt 0.2421875 0.5859375
vt 0.2421875 0.609375
vt 0.21875 0.609375
vt 0.3984375 0.9765625
vt 0.421875 0.9765625
vt 0.421875 1
vt 0.3984375 1
vt 0.265625 0.578125
vt 0.28125 0.578125
vt 0.28125 0.6015625
vt 0.265625 0.6015625
vt 0.203125 0.6875
vt 0.2109375 0.6875
vt 0.2109375 0.7109375
vt 0.203125 0.7109375
vt 0.2265625 0.5625
vt 0.2421875 0.5625
vt 0.2421875 0.5859375
vt 0.2265625 0.5859375
vt 0.3046875 0.828125
vt 0.3125 0.828125
vt 0.3125 0.8515625
vt 0.3046875 0.8515625
vt 0.1328125 0.7421875
vt 0.1484375 0.7421875
vt 0.1484375 0.75
vt 0.1328125 0.75
vt 0.1171875 0.734375
vt 0.1328125 0.734375
vt 0.1328125 0.7421875
vt 0.1171875 0.7421875
vt 0.09375 0.4375
vt 0.09375 0.53125
vt 0 0.53125
vt 0 0.4375
vt 0.19566835875147048 0.5015785203268719
vt 0.28125 0.4633052243986664
vt 0.28125 0.578125
vt 0.3984375 0.9234535203268719
vt 0.48401914124852946 0.8851802243986664
vt 0.4840191412485295 1
vt 0.09410575243764624 0.6890775694204005
vt 0.1796875 0.6508045112178795
vt 0.17968749999999994 0.765625
vt 0.453125 0.8828125
vt 0.49139829592820555 0.7972308587514705
vt 0.5679447756013336 0.8828125
vt 0.5234375 0.453125
vt 0.5234375 0.578125
vt 0.3984375 0.578125
vt 0.3984375 0.453125
vt 0.28125786479583764 0.5749389602980568
vt 0.3984375 0.5314196186966558
vt 0.3984375 0.7109375
vt 0.1953125 0.6608764602980568
vt 0.31249213520416236 0.6173571186966558
vt 0.31249213520416236 0.796875
vt 0.28125786479583764 0.8640014602980568
vt 0.3984375 0.8204821186966558
vt 0.3984375 1
vt 0.3359375 0.7468139602980568
vt 0.45311713520416236 0.7032946186966558
vt 0.45311713520416236 0.8828125
vt 0.421875 0.953125
vt 0.421875 0.9765625
vt 0.3984375 0.9765625
vt 0.3984375 0.953125
vt 0.33173068033457637 0.7147075991442883
vt 0.3515625 0.7064445913445375
vt 0.3515625 0.734375
vt 0.1796875 0.6875
vt 0.18795050779975075 0.6676681803345763
vt 0.20761790865546248 0.6875
vt 0.24579318033457637 0.6131450991442883
vt 0.265625 0.6048820913445375
vt 0.265625 0.6328125
vt 0.28125 0.8125
vt 0.28951300779975075 0.7926681803345763
vt 0.3091804086554625 0.8125
vt 0.421875 0.8828125
vt 0.421875 0.90625
vt 0.3984375 0.90625
vt 0.3984375 0.8828125
vt 0.33954318033457637 0.8084575991442883
vt 0.359375 0.8001945913445375
vt 0.359375 0.828125
vt 0.328125 0.96875
vt 0.33638800779975075 0.9489181803345764
vt 0.3560554086554625 0.96875
vt 0.33173068033457637 0.9803325991442883
vt 0.3515625 0.9720695913445375
vt 0.3515625 1
vt 0.1171875 0.765625
vt 0.12545050779975075 0.7457931803345763
vt 0.14511790865546248 0.765625
vt 0.421875 0.8828125
vt 0.3984375 0.8828125
vt 0.3984375 0.859375
vt 0.421875 0.859375
vt 0.09375 0.7265625
vt 0.10201300779975075 0.7067306803345763
vt 0.12168040865546247 0.7265625
vt 0.3515625 0.7068950991442883
vt 0.37139431966542363 0.6986320913445375
vt 0.37139431966542363 0.7265625
vt 0.20644459134453752 0.7265625
vt 0.21470759914428827 0.7067306803345763
vt 0.234375 0.7265625
vt 0.31610568033457637 0.6678325991442883
vt 0.3359375 0.6595695913445375
vt 0.3359375 0.6875
vt 0.265625 0.6015625
vt 0.2421875 0.6015625
vt 0.2421875 0.578125
vt 0.265625 0.578125
vt 0.28125 0.921875
vt 0.28951300779975075 0.9020431803345763
vt 0.3091804086554625 0.921875
vt 0.21875 0.6209575991442883
vt 0.23858181966542363 0.6126945913445375
vt 0.2385818196654236 0.640625
vt 0.09706959134453753 0.671875
vt 0.1053325991442883 0.6520431803345763
vt 0.125 0.671875
vt 0.33954318033457637 0.6834575991442883
vt 0.359375 0.6751945913445375
vt 0.359375 0.703125
vn 0 0.0000029740779402041198 -0.9999999999955774
vn 1 0 0
vn 0 -0.000002974077940223364 0.9999999999955774
vn -1 0 0
vn 0 1 0
vn 0 -1 0
vn 0 0 -1
vn 1 0 0
vn 0 0 1
vn -1 0 0
vn 0 1 0
vn 0 -1 0
vn 0 0 -1
vn 0.9167315445663143 -0.3995037862111692 0
vn 0 0 1
vn -0.9167315445663143 0.3995037862111692 0
vn 0.36633615508719897 0.9304825745149276 0
vn -0.36633615508719897 -0.9304825745149276 0
vn 0 0 -1
vn 0.9167315445663143 0.3995037862111692 0
vn 0 0 1
vn -0.9167315445663143 -0.3995037862111692 0
vn -0.36633615508719897 0.9304825745149276 0
vn 0.36633615508719897 -0.9304825745149276 0
vn -1 0 0
vn 0 0.41937667174542176 -0.9078123193676836
vn 1 0 0
vn 0 -0.41937667174542176 0.9078123193676836
vn 0 0.9374342163685386 0.34816244769001725
vn 0 -0.9374342163685386 -0.34816244769001725
vn -1 0 0
vn 0 -0.41937667174542176 -0.9078123193676836
vn 1 0 0
vn 0 0.41937607319460457 0.9078125958764142
vn 0 0.9374342163685386 -0.34816244769001725
vn 0 -0.9374348102415974 0.348160848670985
vn 0 0 -1
vn 1 0 0
vn 0 0 1
vn -1 0 0
vn 0 1 0
vn 0 -1 0
vn 0 0 -1
vn 1 0 0
vn 0 0 1
vn -1 0 0
vn 0 1 0
vn 0 -1 0
vn 0 0 -1
vn 1 0 0
vn 0 0 1
vn -1 0 0
vn 0 1 0
vn 0 -1 0
vn 0 0 -1
vn 1 0 0
vn 0 0 1
vn -1 0 0
vn 0 1 0
vn 0 -1 0
vn 0 0 -1
vn 1 0 0
vn 0 0 1
vn -1 0 0
vn 0 1 0
vn 0 -1 0
vn 0 -1 0
vn 0.885016423766897 0.4655598024559815 0
vn 0 0.48703221951569714 0.8733840032618034
vn 0 0.4870342008931709 -0.8733828983672344
vn -0.885016423766897 0.4655598024559815 0
vn 0 -1 0
vn 0.9217063727062418 0.387888337685864 0
vn 0 0.4074095270608065 0.913245573359154
vn 0 0.4074095270608065 -0.913245573359154
vn -0.9217063727062418 0.387888337685864 0
vn 0 -1 0
vn 0.9007462551806573 0.4343456961661093 0
vn 0 0.4551502845159817 0.890414632912679
vn 0 0.4551544836297032 -0.8904124864532046
vn -0.9007442777811654 0.43434979687400205 0
vn 0 -1 0
vn 0.9007462551806572 0.4343456961661098 0
vn 0 0.4551502845159823 0.8904146329126789
vn 0 0.4551544836297036 -0.8904124864532044
vn -0.9007442777811653 0.4343497968740026 0
vn 0 -1 0
vn -0.9007462551806572 0.4343456961661098 0
vn 0 0.4551502845159823 0.8904146329126789
vn 0 0.4551544836297036 -0.8904124864532044
vn 0.9007442777811653 0.4343497968740026 0
vn 0 -1 0
vn -0.9007462551806573 0.4343456961661093 0
vn 0 0.4551502845159817 0.890414632912679
vn 0 0.4551544836297032 -0.8904124864532046
vn 0.9007442777811654 0.43434979687400205 0
usemtl m_36b8d12f-63ef-157f-fde5-d9ddc86c9e5b
f 1/1/1 2/2/1 3/3/1 4/4/1
f 5/5/2 1/6/2 4/7/2 6/8/2
f 7/9/3 5/10/3 6/11/3 8/12/3
f 2/13/4 7/14/4 8/15/4 3/16/4
f 8/17/5 6/18/5 4/19/5 3/20/5
f 2/21/6 1/22/6 5/23/6 7/24/6
f 9/25/7 10/26/7 11/27/7 12/28/7
f 13/29/8 9/30/8 12/31/8 14/32/8
f 15/33/9 13/34/9 14/35/9 16/36/9
f 10/37/10 15/38/10 16/39/10 11/40/10
f 16/41/11 14/42/11 12/43/11 11/44/11
f 10/45/12 9/46/12 13/47/12 15/48/12
f 17/49/13 18/50/13 19/51/13 20/52/13
f 21/53/14 17/54/14 20/55/14 22/56/14
f 23/57/15 21/58/15 22/59/15 24/60/15
f 18/61/16 23/62/16 24/63/16 19/64/16
f 24/65/17 22/66/17 20/67/17 19/68/17
f 18/69/18 17/70/18 21/71/18 23/72/18
f 25/73/19 26/74/19 27/75/19 28/76/19
f 29/77/20 25/78/20 28/79/20 30/80/20
f 31/81/21 29/82/21 30/83/21 32/84/21
f 26/85/22 31/86/22 32/87/22 27/88/22
f 32/89/23 30/90/23 28/91/23 27/92/23
f 26/93/24 25/94/24 29/95/24 31/96/24
f 33/97/25 34/98/25 35/99/25 36/100/25
f 37/101/26 33/102/26 36/103/26 38/104/26
f 39/105/27 37/106/27 38/107/27 40/108/27
f 34/109/28 39/110/28 40/111/28 35/112/28
f 40/113/29 38/114/29 36/115/29 35/116/29
f 34/117/30 33/118/30 37/119/30 39/120/30
f 41/121/31 42/122/31 43/123/31 44/124/31
f 45/125/32 41/126/32 44/127/32 46/128/32
f 47/129/33 45/130/33 46/131/33 48/132/33
f 42/133/34 47/134/34 48/135/34 43/136/34
f 48/137/35 46/138/35 44/139/35 43/140/35
f 42/141/36 41/142/36 45/143/36 47/144/36
f 49/145/37 50/146/37 51/147/37 52/148/37
f 53/149/38 49/150/38 52/151/38 54/152/38
f 55/153/39 53/154/39 54/155/39 56/156/39
f 50/157/40 55/158/40 56/159/40 51/160/40
f 56/161/41 54/162/41 52/163/41 51/164/41
f 50/165/42 49/166/42 53/167/42 55/168/42
f 57/169/43 58/170/43 59/171/43 60/172/43
f 61/173/44 57/174/44 60/175/44 62/176/44
f 63/177/45 61/178/45 62/179/45 64/180/45
f 58/181/46 63/182/46 64/183/46 59/184/46
f 64/185/47 62/186/47 60/187/47 59/188/47
f 58/189/48 57/190/48 61/191/48 63/192/48
f 65/193/49 66/194/49 67/195/49 68/196/49
f 69/197/50 65/198/50 68/199/50 70/200/50
f 71/201/51 69/202/51 70/203/51 72/204/51
f 66/205/52 71/206/52 72/207/52 67/208/52
f 72/209/53 70/210/53 68/211/53 67/212/53
f 66/213/54 65/214/54 69/215/54 71/216/54
f 73/217/55 74/218/55 75/219/55 76/220/55
f 77/221/56 73/222/56 76/223/56 78/224/56
f 79/225/57 77/226/57 78/227/57 80/228/57
f 74/229/58 79/230/58 80/231/58 75/232/58
f 80/233/59 78/234/59 76/235/59 75/236/59
f 74/237/60 73/238/60 77/239/60 79/240/60
f 81/241/61 82/242/61 83/243/61 84/244/61
f 85/245/62 81/246/62 84/247/62 86/248/62
f 87/249/63 85/250/63 86/251/63 88/252/63
f 82/253/64 87/254/64 88/255/64 83/256/64
f 88/257/65 86/258/65 84/259/65 83/260/65
f 82/261/66 81/262/66 85/263/66 87/264/66
f 89/265/67 90/266/67 91/267/67 92/268/67
f 90/269/68 89/270/68 93/271/68
f 91/272/69 90/273/69 93/274/69
f 89/275/70 92/276/70 93/277/70
f 92/278/71 91/279/71 93/280/71
f 94/281/72 95/282/72 96/283/72 97/284/72
f 95/285/73 94/286/73 98/287/73
f 96/288/74 95/289/74 98/290/74
f 94/291/75 97/292/75 98/293/75
f 97/294/76 96/295/76 98/296/76
f 99/297/77 100/298/77 101/299/77 102/300/77
f 100/301/78 99/302/78 103/303/78
f 101/304/79 100/305/79 103/306/79
f 99/307/80 102/308/80 103/309/80
f 102/310/81 101/311/81 103/312/81
f 104/313/82 105/314/82 106/315/82 107/316/82
f 105/317/83 104/318/83 108/319/83
f 106/320/84 105/321/84 108/322/84
f 104/323/85 107/324/85 108/325/85
f 107/326/86 106/327/86 108/328/86
f 109/329/87 110/330/87 111/331/87 112/332/87
f 111/333/88 110/334/88 113/335/88
f 110/336/89 109/337/89 113/338/89
f 112/339/90 111/340/90 113/341/90
f 109/342/91 112/343/91 113/344/91
f 114/345/92 115/346/92 116/347/92 117/348/92
f 116/349/93 115/350/93 118/351/93
f 115/352/94 114/353/94 118/354/94
f 117/355/95 116/356/95 118/357/95
f 114/358/96 117/359/96 118/360/96